<?xml version="1.0" encoding="utf-8"?>
<!-- Generator: Adobe Illustrator 28.2.0, SVG Export Plug-In . SVG Version: 6.00 Build 0)  -->
<svg version="1.1" xmlns="http://www.w3.org/2000/svg" xmlns:xlink="http://www.w3.org/1999/xlink" x="0px" y="0px"
	 viewBox="0 0 458 101" style="enable-background:new 0 0 458 101;" xml:space="preserve">
<g id="Layer_1">
</g>
<g id="black">
	<path d="M92.2,3.1C96.9,5.3,99,8.9,99,14.6c0,4.5-3.4,20.8-5.4,26c-2.4,6.2-5.8,10-11.2,12.3c-3.9,1.8-8.9,2.5-17.1,2.5
		c-9.4,0-13.6-1-16.9-4.1C46.1,49,45,46.1,45,42c0-4.6,3.4-20.2,5.6-26.3c2.3-5.9,5.5-9.4,11.3-12c4-1.8,8.3-2.4,17-2.4
		C85.9,1.3,89.4,1.7,92.2,3.1z M65.6,16.5c-1.4,1.8-1.6,2.5-3.5,11c-1.2,5.1-1.8,9.2-1.8,11c0,3.7,1.8,4.6,8.9,4.6
		c7.6,0,9.5-1.4,11.6-8.7c1.4-4.5,3.1-13.8,3.1-16.2c0-3.8-1.7-4.8-8.6-4.8C69.4,13.5,67.4,14.1,65.6,16.5z"/>
	<path d="M107.4,45.8l-4.5,9.2H88l27.4-53.4H137l4.9,53.4h-14.6l-0.8-9.2H107.4z M124.2,12.3l-11.5,23.2h13.3L124.2,12.3z"/>
	<path d="M153.8,1.7h27.9c2.8,0,6.1,0.4,8.5,1c5.4,1.4,8.7,6,8.7,11.9c0,3.6,0,3.6-2.2,13.3C194,41,192.9,44,189,48.5
		c-4.2,4.7-9.9,6.6-19.4,6.6h-27.1L153.8,1.7z M171,42.8c3.6,0,5.4-0.8,7.3-3.1c1.4-1.8,2.3-4.6,3.9-11.8c0.8-3.6,1.4-7.4,1.4-8.9
		c0-3.6-1.8-5-6.5-5h-11.6l-6.1,28.7H171z"/>
	<path d="M271.7,55h-14.3l11.4-53.4H283L271.7,55z"/>
	<path d="M295.7,23.8h21.7l-2.5,11.8h-21.7L289,55h-14.3l11.4-53.4h37.8l-2.5,11.8h-23.4L295.7,23.8z"/>
	<path d="M342.9,55h-14.3l8.7-41.1h-13.5l2.6-12.2h42.2L366,13.9h-14.4L342.9,55z"/>
	<path d="M380.6,23h22.7l-2.1,9.8h-22.7l-2.2,10.4h24.7L398.6,55h-39.1l11.4-53.4h38.6L407,13.4h-24.2L380.6,23z"/>
	<path d="M413.3,1.7h26.9c5.9,0,9.3,0.5,11.5,1.6c3.1,1.6,4.9,4.6,4.9,8.2c0,5.4-2.5,14.5-4.8,17.8c-1.9,2.7-3.9,3.8-9.6,5l-0.1,0.6
		c5.2,0.2,7.8,2.6,7.8,7c0,1-0.1,1.9-0.4,3.4l-2.1,9.8h-14.6l1.5-7.1c0.2-1,0.3-2.2,0.3-3c0-2.8-1.4-4-4.8-4h-10.6l-3,14.2h-14.3
		L413.3,1.7z M433.2,28.8c3.6,0,5.3-1,6.2-3.9c0.6-1.9,1.6-6.3,1.6-7.5c0-2.7-1.1-3.4-5.4-3.4H425l-3.1,14.9H433.2z"/>
	<g>
		<path d="M9.1,74.2l-0.3,2.8H9c1-2.2,2.2-3,4.5-3c2.3,0,3.7,0.9,4.2,2.9c0.3,0.9,0.3,1,0.3,5h-5.3c0-0.3,0-0.5,0-0.6
			c0-2.3-0.3-2.9-1.5-2.9c-0.9,0-1.6,0.5-2,1.4c-0.2,0.5-0.2,0.6-0.2,1.9v10.2H3.4V74.2H9.1z"/>
		<path d="M39.1,75.7c1.2,1.3,1.7,3,1.7,6.6c0,8.2-1.5,9.8-8.8,9.8c-4.4,0-6.7-0.8-7.8-2.7c-0.8-1.4-1-2.6-1-6.9
			c0-3.9,0.5-5.6,1.9-6.8c1.4-1.2,3-1.6,7.3-1.6C36.3,74,37.9,74.5,39.1,75.7z M29,82.8c0,4.2,0.5,5,3,5c2.6,0,3-0.8,3-5.1
			c0-3.6-0.5-4.3-3-4.3C29.5,78.3,29,79.1,29,82.8z"/>
		<path d="M64,91.9h-5.7l0.3-3.6h-0.1c-0.8,2.6-2.5,3.8-5.5,3.8c-2.5,0-4.3-0.9-5.2-2.5c-0.5-0.8-0.6-1.8-0.6-3.4V74.2h5.7v10.1
			c0,1.9,0,1.9,0.2,2.3c0.3,0.6,1.1,1,2.2,1c1.2,0,2.2-0.5,2.7-1.4c0.3-0.5,0.3-0.8,0.3-2.8v-9.2H64V91.9z"/>
		<path d="M87.9,91.5c0,6.4-2,8.2-9,8.2c-3.8,0-5.9-0.6-7-1.9C71.2,97,71,96.2,71,93.5h5.5c0,1.7,0.4,2.1,2.5,2.1
			c2.5,0,3.2-0.6,3.2-2.5v-4.3H82c-0.8,2.2-2.3,3.1-5,3.1c-2.4,0-4.6-0.9-5.6-2.3c-0.8-1.2-1.1-3.1-1.1-7c0-4,0.5-5.9,1.9-7.2
			c1-0.9,2.6-1.3,4.6-1.3c3.2,0,4.5,0.9,5.4,3.6h0.1l-0.3-3.4h5.7V91.5z M82.1,83.5c0-3.2,0-3.5-0.6-4.3c-0.4-0.5-1.1-0.8-2.4-0.8
			c-2.6,0-2.9,0.5-2.9,4.6c0,3.7,0.4,4.4,2.9,4.4s3.1-0.7,3.1-3.4V83.5z"/>
		<path d="M100.5,77.8h0.1c1-2.9,2.2-3.7,5.3-3.7c3.8,0,5.8,1.8,5.8,5.2v12.6H106V81.4c0-1.2,0-1.6-0.3-2c-0.3-0.6-1-0.9-2-0.9
			c-2.2,0-3.1,1-3.1,3.2v10.1h-5.7V66.7h5.7V77.8z"/>
		<path d="M125.9,78.7v5.7h-9v-5.7H125.9z"/>
		<path d="M144.7,78.4H138v7.1c0,1.9,0.2,2.3,1.3,2.3c1.3,0,1.6-0.5,1.6-3.2h4.6l0,0.7c0,2.7-0.1,3.2-0.4,4c-0.8,2-2.5,2.7-6.7,2.7
			c-3,0-4.6-0.6-5.5-2.1c-0.5-0.8-0.6-1.5-0.6-3.3v-8.3h-2.2v-4.2h2.2v-3.7h5.7v3.7h6.7V78.4z"/>
		<path d="M167.7,86v0.3c0,1.5-0.3,2.8-1,3.7c-1.1,1.5-2.9,2-6.7,2c-4.1,0-6.2-0.5-7.6-1.9c-1.3-1.3-1.7-3.2-1.7-7.6
			c0-3.8,0.5-5.7,1.9-6.9c1.3-1.2,3.3-1.7,6.8-1.7c6.5,0,8.4,1.9,8.4,8.4v1.7h-11.3c0,0.3,0,0.6,0,0.7c0,2.5,0.7,3.3,3,3.3
			c2.1,0,2.7-0.5,2.7-2.1H167.7z M162.2,80.9c0-0.3,0-0.5,0-0.6c0-0.9-0.1-1.1-0.3-1.5c-0.4-0.6-1-0.7-2.7-0.7c-1.6,0-2.2,0.2-2.5,1
			c-0.2,0.4-0.2,0.5-0.2,1.8H162.2z"/>
		<path d="M179.9,74.2l-0.3,2.8h0.1c1-2.2,2.2-3,4.5-3c2.3,0,3.7,0.9,4.2,2.9c0.3,0.9,0.3,1,0.3,5h-5.3c0-0.3,0-0.5,0-0.6
			c0-2.3-0.3-2.9-1.5-2.9c-0.9,0-1.6,0.5-2,1.4c-0.2,0.5-0.2,0.6-0.2,1.9v10.2h-5.7V74.2H179.9z"/>
		<path d="M200.2,74.2l-0.3,2.8h0.1c1-2.2,2.2-3,4.5-3c2.3,0,3.7,0.9,4.2,2.9c0.3,0.9,0.3,1,0.3,5h-5.3c0-0.3,0-0.5,0-0.6
			c0-2.3-0.3-2.9-1.5-2.9c-0.9,0-1.6,0.5-2,1.4c-0.2,0.5-0.2,0.6-0.2,1.9v10.2h-5.7V74.2H200.2z"/>
		<path d="M214.7,79.5c0-2.1,0.2-2.9,0.9-3.7c1.1-1.3,2.8-1.7,6.9-1.7c5,0,7.1,0.8,8.1,2.8c0.3,0.6,0.6,2.3,0.6,3.6v11.5h-5.7
			l0.2-2.9h-0.2c-0.8,2.3-2,3.1-5.3,3.1c-4.5,0-6.2-1.5-6.2-5.6c0-3.8,1.9-5.4,6.3-5.4c3.4,0,4.3,0.4,5,2.2h0.1v-3.4
			c0-1.7-0.7-2.3-2.7-2.3c-1.7,0-2.2,0.4-2.3,1.9H214.7z M219.8,86.4c0,1.6,0.6,1.9,3.1,1.9c2,0,2.5-0.5,2.5-2
			c0-1.3-0.6-1.7-2.9-1.7C220.4,84.6,219.8,85,219.8,86.4z"/>
		<path d="M244,70.9h-5.7v-4.3h5.7V70.9z M244,91.9h-5.7V74.2h5.7V91.9z"/>
		<path d="M257,74.2l-0.2,3.4h0.1c0.9-2.7,2.2-3.6,5.1-3.6c4.2,0,6.1,1.7,6.1,5.4v12.5h-5.7V81.8c0-2.6-0.4-3.2-2.2-3.2
			c-2.1,0-3.1,1-3.1,3v10.4h-5.7V74.2H257z"/>
		<path d="M289.1,78.4h-2.3v-4.2h2.3V73c-0.1-5.1,1.7-6.5,8.1-6.6h0.7h0.7v4.3c-0.5-0.1-0.8-0.2-1.3-0.2c-1,0-1.7,0.3-2.1,0.7
			c-0.3,0.4-0.4,0.8-0.4,1.9v1.1h4v4.2h-4v13.5h-5.7V78.4z"/>
		<path d="M320,75.7c1.2,1.3,1.7,3,1.7,6.6c0,8.2-1.5,9.8-8.8,9.8c-4.4,0-6.7-0.8-7.8-2.7c-0.8-1.4-1-2.6-1-6.9
			c0-3.9,0.5-5.6,1.9-6.8c1.4-1.2,3-1.6,7.3-1.6C317.1,74,318.8,74.5,320,75.7z M309.9,82.8c0,4.2,0.5,5,3,5c2.6,0,3-0.8,3-5.1
			c0-3.6-0.5-4.3-3-4.3C310.4,78.3,309.9,79.1,309.9,82.8z"/>
		<path d="M333.9,74.2l-0.3,2.8h0.1c1-2.2,2.2-3,4.5-3c2.3,0,3.7,0.9,4.2,2.9c0.3,0.9,0.3,1,0.3,5h-5.3c0-0.3,0-0.5,0-0.6
			c0-2.3-0.3-2.9-1.5-2.9c-0.9,0-1.6,0.5-2,1.4c-0.2,0.5-0.2,0.6-0.2,1.9v10.2h-5.7V74.2H333.9z"/>
		<path d="M354.1,80.9h1l3.5-6.7h6.4l-5,8.5l6.1,9.2h-6.7l-4.2-7.2h-1v7.2h-5.7V66.7h5.7V80.9z"/>
		<path d="M377.5,91.9h-5.7V66.7h5.7V91.9z"/>
		<path d="M390.4,70.9h-5.7v-4.3h5.7V70.9z M390.4,91.9h-5.7V74.2h5.7V91.9z"/>
		<path d="M398.7,78.4h-2.3v-4.2h2.3V73c-0.1-5.1,1.7-6.5,8.1-6.6h0.7h0.7v4.3c-0.5-0.1-0.8-0.2-1.3-0.2c-1,0-1.7,0.3-2.1,0.7
			c-0.3,0.4-0.4,0.8-0.4,1.9v1.1h4v4.2h-4v13.5h-5.7V78.4z"/>
		<path d="M428,78.4h-6.7v7.1c0,1.9,0.2,2.3,1.3,2.3c1.3,0,1.6-0.5,1.6-3.2h4.6l0,0.7c0,2.7-0.1,3.2-0.4,4c-0.8,2-2.5,2.7-6.7,2.7
			c-3,0-4.6-0.6-5.5-2.1c-0.5-0.8-0.6-1.5-0.6-3.3v-8.3h-2.2v-4.2h2.2v-3.7h5.7v3.7h6.7V78.4z"/>
		<path d="M445.1,79.3L445,79c-0.3-1.1-0.6-1.2-2.7-1.2c-1.4,0-1.7,0-2.1,0.3c-0.3,0.2-0.6,0.7-0.6,1.2c0,0.8,0.3,1.2,0.9,1.4
			c0.3,0.1,0.3,0.1,3.5,0.2c3.4,0.2,4.5,0.4,5.6,1.1c1.1,0.8,1.7,2.2,1.7,4.1c0,2-0.6,3.5-1.8,4.5c-1.4,1.2-3.2,1.5-7.1,1.5
			c-4.6,0-6.6-0.6-7.6-2.3c-0.5-0.9-0.6-1.7-0.7-3.4h5.9v0.3c0,1.4,0.5,1.7,2.8,1.7c2.4,0,3-0.3,3-1.5c0-1.4-0.5-1.7-2.5-1.7
			c-3.5,0-4.9-0.2-6.1-0.6c-2.1-0.7-3-2.2-3-4.9c0-2.2,0.6-3.7,1.9-4.5c1.2-0.8,3.1-1,6.6-1c6.2,0,7.8,1.1,7.9,5.3H445.1z"/>
	</g>
	<path d="M21.7,42.8l8.7-41.1H16.1c-5.9,0-6.7,4.1-7.7,8.5h3.2l0.5-1.5h2.5L8.9,35.4l0,0l-6.6,3.3l-0.9,4.1h5.9L4.7,55h27.7
		c5.3,0,9.8-3.7,10.9-8.8l0.7-3.4H21.7z"/>
	<path d="M236,42.8l8.7-41.1h-14.3c-5.9,0-6.7,4.1-7.7,8.5h3.2l0.5-1.5h2.5l-5.7,26.7l0,0l-6.6,3.3l-0.9,4.1h5.9L219,55h27.7
		c5.3,0,9.8-3.7,10.9-8.8l0.7-3.4H236z"/>
</g>
</svg>
