<svg xmlns="http://www.w3.org/2000/svg" viewBox="0 0 163.87 48.52"><defs><style>.cls-1{fill:#203468;}.cls-2{fill:#d22630;}.cls-3{fill:#768692;}</style></defs><title>Asset 8</title><g id="Layer_2" data-name="Layer 2"><g id="Design"><path class="cls-1" d="M62.53.39h7.72L86.58,31.5H77.82l-3.48-6.93H58.23L54.74,31.5H46.2Zm8.81,18.18-5.06-10-5.06,10Z"/><path class="cls-1" d="M88.49.61h17.42c4.84,0,8.6,1.1,11.1,3.13a8.77,8.77,0,0,1,3.26,7.06v.09c0,5-3.32,8.12-8.16,9.57l9.31,11h-9.8l-8.16-9.88H96.87v9.88H88.49Zm16.87,15c4.08,0,6.42-1.76,6.42-4.37v-.09c0-2.91-2.5-4.41-6.58-4.41H96.87v8.87Z"/><path class="cls-1" d="M139.81.39h7.73L163.87,31.5H155.1l-3.48-6.93H135.51L132,31.5h-8.55Zm8.82,18.18-5.06-10-5.07,10Z"/><path class="cls-2" d="M.4,31.6H24.74c-14.16-5-16.95-12.29-16.95-12.29Z"/><path class="cls-1" d="M36.91,29,24.74,8.74C27.3,23,22.14,29,22.14,29Z"/><path class="cls-3" d="M16,0,3.79,20.24C15.4,11,23.35,12.29,23.35,12.29Z"/><path class="cls-1" d="M158.25,48.38h.92V44.81a1.83,1.83,0,0,1,1.87-2,1.66,1.66,0,0,1,1.73,1.88v3.64h.92V44.51A2.27,2.27,0,0,0,161.31,42a2.38,2.38,0,0,0-2.14,1.21V42.15h-.92Zm-4.61-.69a2.33,2.33,0,0,1-2.3-2.42v0a2.3,2.3,0,0,1,2.28-2.41,2.36,2.36,0,0,1,2.31,2.44v0a2.3,2.3,0,0,1-2.29,2.4m0,.83a3.23,3.23,0,0,0,3.26-3.25v0a3.25,3.25,0,0,0-6.49,0v0a3.19,3.19,0,0,0,3.23,3.23m-5.54-.14H149V42.15h-.92Zm-.06-7.6h1.06v-1H148Zm-2.28,7.71a2.35,2.35,0,0,0,1.12-.27v-.79a2,2,0,0,1-.91.21.91.91,0,0,1-1-1V43h2v-.82h-2V40.27H144v1.88h-.87V43H144v3.76a1.59,1.59,0,0,0,1.76,1.76m-6.59-.71c-.84,0-1.56-.46-1.56-1.25v0c0-.78.65-1.29,1.82-1.29a6.21,6.21,0,0,1,1.83.27v.6a1.89,1.89,0,0,1-2.09,1.69m-.18.73a2.76,2.76,0,0,0,2.26-1.07v.94h.89V44.57a2.46,2.46,0,0,0-.64-1.82,2.72,2.72,0,0,0-2-.69,5.2,5.2,0,0,0-2.27.52l.28.76a4.29,4.29,0,0,1,1.89-.46c1.17,0,1.86.58,1.86,1.7v.22a6.52,6.52,0,0,0-1.92-.27c-1.58,0-2.66.7-2.66,2v0A2.1,2.1,0,0,0,139,48.51m-4.54-.13h.93V42.15h-.93Zm-.06-7.6h1.06v-1h-1.06Zm-3.69,7.74a3.19,3.19,0,0,0,2.54-1.2l-.59-.56a2.57,2.57,0,0,1-1.9.93,2.33,2.33,0,0,1-2.29-2.42v0a2.3,2.3,0,0,1,2.23-2.41,2.54,2.54,0,0,1,1.89.94l.61-.65a3.24,3.24,0,0,0-5.68,2.15v0a3.19,3.19,0,0,0,3.19,3.23m-7.42-.83A2.34,2.34,0,0,1,121,45.27v0a2.3,2.3,0,0,1,2.28-2.41,2.36,2.36,0,0,1,2.32,2.44v0a2.3,2.3,0,0,1-2.29,2.4m0,.83a3.24,3.24,0,0,0,3.27-3.25v0a3.25,3.25,0,0,0-6.5,0v0a3.19,3.19,0,0,0,3.23,3.23m-6.39,0a2,2,0,0,0,2.21-1.87v0c0-1.12-1-1.5-2-1.79s-1.6-.48-1.6-1.07v0c0-.52.47-.91,1.21-.91a3.55,3.55,0,0,1,1.84.6l.42-.69a4.19,4.19,0,0,0-2.24-.69,1.88,1.88,0,0,0-2.12,1.78v0c0,1.14,1.08,1.48,2.06,1.76.82.23,1.56.47,1.56,1.09v0c0,.6-.55,1-1.29,1a3.61,3.61,0,0,1-2.16-.8l-.47.66a4.25,4.25,0,0,0,2.58.92m-5.67,0a2,2,0,0,0,2.22-1.87v0c0-1.12-1-1.5-2-1.79s-1.6-.48-1.6-1.07v0c0-.52.47-.91,1.2-.91a3.58,3.58,0,0,1,1.85.6l.42-.69A4.19,4.19,0,0,0,111,42a1.88,1.88,0,0,0-2.12,1.78v0c0,1.14,1.08,1.48,2.06,1.76.82.23,1.55.47,1.55,1.09v0c0,.6-.54,1-1.29,1a3.63,3.63,0,0,1-2.16-.8l-.47.66a4.28,4.28,0,0,0,2.58.92m-9.6-3.22L103.5,41l1.92,4.29Zm-2.35,3.1h1l1-2.23h4.59l1,2.23h1L104,39.88h-.89Zm-6.25,0h.92v-8.8H93Zm-4.7-.6c-.85,0-1.57-.46-1.57-1.25v0c0-.78.65-1.29,1.82-1.29a6.16,6.16,0,0,1,1.83.27v.6a1.88,1.88,0,0,1-2.08,1.69m-.18.73a2.74,2.74,0,0,0,2.25-1.07v.94h.89V44.57a2.42,2.42,0,0,0-.64-1.82,2.71,2.71,0,0,0-2-.69,5.16,5.16,0,0,0-2.26.52l.27.76a4.3,4.3,0,0,1,1.9-.46c1.17,0,1.85.58,1.85,1.7v.22a6.45,6.45,0,0,0-1.91-.27c-1.58,0-2.67.7-2.67,2v0a2.1,2.1,0,0,0,2.33,1.94m-4.31,0a2.29,2.29,0,0,0,1.12-.27v-.79a2,2,0,0,1-.9.21.92.92,0,0,1-1-1V43h2v-.82H83V40.27H82v1.88h-.87V43H82v3.76a1.58,1.58,0,0,0,1.75,1.76m-9.06-.11h.93V44.81a1.83,1.83,0,0,1,1.86-2,1.66,1.66,0,0,1,1.73,1.88v3.64h.93V44.51A2.27,2.27,0,0,0,77.78,42a2.36,2.36,0,0,0-2.13,1.21V42.15h-.93Zm-6.31-3.46a2.15,2.15,0,0,1,2-2.12,2.06,2.06,0,0,1,2,2.12Zm2.17,3.6a3.23,3.23,0,0,0,2.57-1.17l-.58-.51a2.59,2.59,0,0,1-2,.88,2.18,2.18,0,0,1-2.19-2.11h4.94a3,3,0,0,0,0-.31c0-1.82-1-3.28-2.9-3.28a3.07,3.07,0,0,0-3,3.24v0a3.1,3.1,0,0,0,3.11,3.24m-9.9-4.28V40.82h2.6c1.36,0,2.16.63,2.16,1.66v0c0,1.08-.91,1.73-2.17,1.73Zm-1,4.14h1V45.1h2.41l2.44,3.28H66.7l-2.59-3.45a2.47,2.47,0,0,0,2.29-2.46v0a2.33,2.33,0,0,0-.65-1.67,3.32,3.32,0,0,0-2.4-.84H59.72Zm-11.31,0h.92V44.81a1.83,1.83,0,0,1,1.87-2,1.66,1.66,0,0,1,1.73,1.88v3.64h.92V44.51A2.27,2.27,0,0,0,51.47,42a2.37,2.37,0,0,0-2.14,1.21V42.15h-.92Zm-4.66-.6c-.84,0-1.56-.46-1.56-1.25v0c0-.78.65-1.29,1.82-1.29a6.21,6.21,0,0,1,1.83.27v.6a1.89,1.89,0,0,1-2.09,1.69m-.18.73a2.76,2.76,0,0,0,2.26-1.07v.94h.89V44.57a2.46,2.46,0,0,0-.64-1.82,2.72,2.72,0,0,0-2-.69,5.2,5.2,0,0,0-2.27.52l.28.76A4.29,4.29,0,0,1,44,42.88c1.17,0,1.86.58,1.86,1.7v.22a6.52,6.52,0,0,0-1.92-.27c-1.58,0-2.66.7-2.66,2v0a2.09,2.09,0,0,0,2.32,1.94m-5.7,0a3.19,3.19,0,0,0,2.54-1.2l-.59-.56a2.57,2.57,0,0,1-1.9.93,2.33,2.33,0,0,1-2.29-2.42v0a2.3,2.3,0,0,1,2.23-2.41,2.54,2.54,0,0,1,1.89.94l.62-.65a3.24,3.24,0,0,0-2.5-1.1,3.21,3.21,0,0,0-3.19,3.25v0a3.19,3.19,0,0,0,3.19,3.23m-5.5-.14h.92V42.15h-.92Zm-.06-7.6h1.06v-1H32.31Zm-4.49,7.6h.92V45.89C28.74,44,29.85,43,31.21,43h.08V42a2.68,2.68,0,0,0-2.55,1.73V42.15h-.92Zm-6.31-3.46a2.14,2.14,0,0,1,2-2.12,2,2,0,0,1,2,2.12Zm2.17,3.6a3.23,3.23,0,0,0,2.57-1.17l-.58-.51a2.59,2.59,0,0,1-2,.88,2.17,2.17,0,0,1-2.19-2.11h4.94a3,3,0,0,0,0-.31c0-1.82-1.06-3.28-2.9-3.28a3.07,3.07,0,0,0-3,3.24v0a3.1,3.1,0,0,0,3.11,3.24M9.77,48.38h.93V44.82a1.8,1.8,0,0,1,1.73-2c1,0,1.61.68,1.61,1.85v3.67H15V44.79a1.74,1.74,0,0,1,1.71-1.93c1,0,1.62.67,1.62,1.88v3.64h.93V44.52A2.24,2.24,0,0,0,16.9,42a2.48,2.48,0,0,0-2.19,1.24,2.12,2.12,0,0,0-2-1.24,2.27,2.27,0,0,0-2,1.17v-1H9.77Zm-7.42-3.1L4.28,41l1.91,4.29ZM0,48.38H1l1-2.23H6.57l1,2.23h1l-3.84-8.5h-.9Z"/></g></g></svg>