<?xml version="1.0" encoding="utf-8"?>
<!-- Generator: Adobe Illustrator 28.2.0, SVG Export Plug-In . SVG Version: 6.00 Build 0)  -->
<svg version="1.1" id="Layer_1" xmlns="http://www.w3.org/2000/svg" xmlns:xlink="http://www.w3.org/1999/xlink" x="0px" y="0px"
	 viewBox="0 0 460 100" style="enable-background:new 0 0 460 100;" xml:space="preserve">
<g>
	<path d="M93.2,5.1c4.6,2.2,6.8,5.8,6.8,11.5c0,4.5-3.4,20.8-5.4,26c-2.4,6.2-5.8,10-11.2,12.3c-3.9,1.8-8.9,2.5-17.1,2.5
		c-9.4,0-13.6-1-16.9-4.1C47.1,51,46,48,46,44c0-4.6,3.4-20.2,5.6-26.3c2.3-5.9,5.5-9.4,11.3-12c4-1.8,8.3-2.4,17-2.4
		C86.9,3.2,90.4,3.7,93.2,5.1z M66.6,18.4c-1.4,1.8-1.6,2.5-3.5,11c-1.2,5.1-1.8,9.2-1.8,11c0,3.7,1.8,4.6,8.9,4.6
		c7.6,0,9.5-1.4,11.6-8.7c1.4-4.5,3.1-13.8,3.1-16.2c0-3.8-1.7-4.8-8.6-4.8C70.4,15.5,68.4,16.1,66.6,18.4z"/>
	<path d="M108.4,47.8l-4.5,9.2H89l27.4-53.4H138l4.9,53.4h-14.6l-0.8-9.2H108.4z M125.2,14.3l-11.5,23.2h13.3L125.2,14.3z"/>
	<path d="M154.8,3.6h27.9c2.8,0,6.1,0.4,8.5,1c5.4,1.4,8.7,6,8.7,11.9c0,3.6,0,3.6-2.2,13.3C195,43,193.9,46,190,50.4
		c-4.2,4.7-9.9,6.6-19.4,6.6h-27.1L154.8,3.6z M172,44.8c3.6,0,5.4-0.8,7.3-3.1c1.4-1.8,2.3-4.6,3.9-11.8c0.8-3.6,1.4-7.4,1.4-8.9
		c0-3.6-1.8-5-6.5-5h-11.6l-6.1,28.7H172z"/>
	<path d="M272.7,57h-14.3l11.4-53.4H284L272.7,57z"/>
	<path d="M296.7,25.8h21.7l-0.4,2c-1.2,5.7-6.2,9.8-12.1,9.8h-11.7L290,57h-14.3l11.4-53.4h37.8l-2.5,11.8h-23.4L296.7,25.8z"/>
	<path d="M343.9,57h-14.3l8.7-41.1h-13.5l2.6-12.2h42.2L367,15.9h-14.4L343.9,57z"/>
	<path d="M381.6,25h22.7l-2.1,9.8h-22.7l-2.2,10.4h24.7l-0.4,2c-1.2,5.7-6.2,9.8-12.1,9.8h-29.1l11.4-53.4h38.6L408,15.4h-24.2
		L381.6,25z"/>
	<path d="M414.3,3.6h26.9c5.9,0,9.3,0.5,11.5,1.6c3.1,1.6,4.9,4.6,4.9,8.2c0,5.4-2.5,14.5-4.8,17.8c-1.9,2.7-3.9,3.8-9.6,5l-0.1,0.6
		c5.2,0.2,7.8,2.6,7.8,7c0,1-0.1,1.9-0.4,3.4l-2.1,9.8h-14.6l1.5-7.1c0.2-1,0.3-2.2,0.3-3c0-2.8-1.4-4-4.8-4h-10.6l-3,14.2h-14.3
		L414.3,3.6z M434.2,30.8c3.6,0,5.3-1,6.2-3.9c0.6-1.9,1.6-6.3,1.6-7.5c0-2.7-1.1-3.4-5.4-3.4H426l-3.1,14.9H434.2z"/>
	<path d="M22.7,44.8l8.7-41.1H17.1c-5.9,0-6.7,4.1-7.7,8.5h3.2l0.5-1.5h2.5L9.9,37.4l0,0l-6.6,3.3l-0.9,4.1h5.9L5.7,57h27.7
		c5.3,0,9.8-3.7,10.9-8.8l0.7-3.4H22.7z"/>
	<path d="M237,44.8l8.7-41.1h-14.3c-5.9,0-6.7,4.1-7.7,8.5h3.2l0.5-1.5h2.5l-5.7,26.7l0,0l-6.6,3.3l-0.9,4.1h5.9L220,57h27.7
		c5.3,0,9.8-3.7,10.9-8.8l0.7-3.4H237z"/>
	<g>
		<path d="M6.2,70.6h19.4c5,0,6.3,2.5,6.3,6.2v1.3c0,2.8-0.6,4.5-3.6,5.2v0.1c1.9,0.3,3.5,1.2,3.5,4.6v3.6h-6.4v-2.5
			c0-2.2-0.6-2.9-2.6-2.9H12.6v5.5H6.2V70.6z M12.6,80.9h10.6c1.7,0,2.4-0.7,2.4-2.2V78c0-1.9-0.9-2.2-3-2.2H12.6V80.9z"/>
		<path d="M35.1,82.4c0-4.9,3.3-5.9,6.1-5.9h8.3c2.8,0,6.1,1,6.1,5.9V86c0,4.9-3.3,5.9-6.1,5.9h-8.3c-2.8,0-6.1-1-6.1-5.9V82.4z
			 M40.7,84.9c0,2.1,1.2,2.8,3.8,2.8h1.3c3.6,0,4.3-0.5,4.3-2.4v-2c0-2-0.7-2.4-4.3-2.4h-1.3c-2.6,0-3.8,0.6-3.8,2.8V84.9z"/>
		<path d="M78.6,91.6H73v-2.4H73c-1,2.1-2.9,2.6-5.9,2.6c-3.5,0-8.3-0.1-8.3-6.5v-8.5h5.6v8.5c0,1.5,1.2,2.2,3.6,2.2h1.3
			c2.4,0,3.8-1.1,3.8-3.2v-7.5h5.6V91.6z"/>
		<path d="M81.8,82.4c0-4.6,2.3-5.8,6.8-5.8h3.2c2.8,0,3.5,0.3,4.9,2.3h0.1v-2h5.2v13.9c0,3.1-1,6.1-8,6.1h-6.1
			c-3.7,0-5.9-0.9-5.9-4.6h5.7c0,0.7,0.5,1.1,1.4,1.1h4c2.4,0,3.6-0.8,3.6-3.3v-1c-1.1,1.1-2,1.5-5,1.5h-2.9c-5.4,0-7-2.1-7-6.1
			V82.4z M93.3,86.6c2.8,0,3.4-0.7,3.4-3c0-2.3-0.6-3-3.4-3h-2.7c-2.8,0-3.4,0.8-3.4,3c0,2.2,0.6,3,3.4,3H93.3z"/>
		<path d="M105.5,70.6h5.6v8.6h0.1c1-2.1,2.9-2.6,5.9-2.6c3.5,0,8.3,0.1,8.3,6.5v8.5h-5.6v-8.5c0-1.5-1.2-2.2-3.6-2.2h-1.3
			c-2.4,0-3.8,1.1-3.8,3.2v7.5h-5.6V70.6z"/>
		<path d="M129.1,81.6h8.1v5.2h-8.1V81.6z"/>
		<path d="M136,70.6h24.5v5.2h-9v15.8H145V75.8H136V70.6z"/>
		<path d="M158.2,83.4c0-5.6,2.8-6.8,6.8-6.8h3.9c5.9,0,8.4,1.2,8.4,6.4v2.5h-13.5v0.9c0,1.6,1.1,2,3.4,2h1.7c3,0,3.2-0.8,3.2-1.7
			h5.2v0.6c0,3.7-3.3,4.5-7.3,4.5h-4.2c-3.7,0-7.6-0.7-7.6-7V83.4z M171.9,82.1c0-1.8-0.8-2.1-4.1-2.1c-3.6,0-4.1,0.3-4.1,2.1H171.9
			z"/>
		<path d="M180.3,76.8h5.2v2.8h0.1c0.6-2.3,2.9-3,5.4-3c4.1,0,5.7,1.7,5.7,5.8c0,0.4,0,0.8-0.1,1.3h-4.8c0-1.9-0.4-2.8-2.7-2.8
			c-1.9,0-3.2,0.7-3.2,2.5v8.2h-5.6V76.8z"/>
		<path d="M199.5,76.8h5.2v2.8h0.1c0.6-2.3,2.9-3,5.4-3c4.1,0,5.7,1.7,5.7,5.8c0,0.4,0,0.8-0.1,1.3H211c0-1.9-0.4-2.8-2.7-2.8
			c-1.9,0-3.2,0.7-3.2,2.5v8.2h-5.6V76.8z"/>
		<path d="M218,86.4c0-4,2.8-4.3,8.2-4.3c3,0,4.7,0.1,5.8,1.2V82c0-1.5-0.4-2-2.6-2h-3.3c-1.6,0-2.1,0.1-2.1,1.2h-5.4
			c0-4,2-4.7,6.7-4.7h6.5c3.8,0,5.9,1.8,5.9,5.3v9.7h-5.3v-1.7c-1.5,1.6-2.1,1.9-4.9,1.9h-3.8c-3.4,0-5.6-0.7-5.6-4.2V86.4z
			 M227.9,88.3c3.8,0,4.2-0.6,4.2-1.6c0-1.1-0.3-1.5-3.4-1.5h-2.5c-2.3,0-2.8,0.5-2.8,1.7c0,1,0.8,1.3,2.9,1.3H227.9z"/>
		<path d="M246.7,74.9h-5.6v-4.4h5.6V74.9z M246.7,91.6h-5.6V76.8h5.6V91.6z"/>
		<path d="M250.4,76.8h5.6v2.4h0.1c1-2.1,2.9-2.6,5.9-2.6c3.5,0,8.3,0.1,8.3,6.5v8.5h-5.6v-8.5c0-1.5-1.2-2.2-3.6-2.2h-1.3
			c-2.4,0-3.8,1.1-3.8,3.2v7.5h-5.6V76.8z"/>
		<path d="M288.6,70.6h21.9v5H295v3.9h14.8v4.9H295v7.2h-6.4V70.6z"/>
		<path d="M313.2,82.4c0-4.9,3.3-5.9,6.1-5.9h8.3c2.8,0,6.1,1,6.1,5.9V86c0,4.9-3.3,5.9-6.1,5.9h-8.3c-2.8,0-6.1-1-6.1-5.9V82.4z
			 M318.8,84.9c0,2.1,1.2,2.8,3.8,2.8h1.3c3.6,0,4.3-0.5,4.3-2.4v-2c0-2-0.7-2.4-4.3-2.4h-1.3c-2.6,0-3.8,0.6-3.8,2.8V84.9z"/>
		<path d="M337,76.8h5.2v2.8h0.1c0.6-2.3,2.9-3,5.4-3c4.1,0,5.7,1.7,5.7,5.8c0,0.4,0,0.8-0.1,1.3h-4.8c0-1.9-0.4-2.8-2.7-2.8
			c-1.9,0-3.2,0.7-3.2,2.5v8.2H337V76.8z"/>
		<path d="M356.2,70.6h5.6v11.1h1l4.9-4.9h7.3l-7.4,6.9l8.3,7.9h-7.1l-5.9-5.9h-1.1v5.9h-5.6V70.6z"/>
		<path d="M378.6,70.6h5.6v21h-5.6V70.6z"/>
		<path d="M393.6,74.9H388v-4.4h5.6V74.9z M393.6,91.6H388V76.8h5.6V91.6z"/>
		<path d="M398.8,80.6h-2.6v-3.8h2.6v-1.1c0-4.1,2.1-5.3,6.8-5.3c1.5,0,2.6,0.1,3.8,0.1v3.8c-0.8,0-1.6-0.1-2.3-0.1
			c-2.2,0-2.8,0.4-2.8,1.9v0.7h5.3v3.8h-5.3v11h-5.6V80.6z"/>
		<path d="M414.2,80.8h-2.8v-4h2.8v-3.5h5.6v3.5h8.6v4h-8.6v5.7c0,1.1,0.8,1.3,2.1,1.3c1.8,0,2.3-0.4,2.3-1.8v-1h4.9v1.8
			c0,2.8-1.9,5-6.3,5h-2.2c-3.4,0-6.4-1.1-6.4-5.2V80.8z"/>
		<path d="M437.5,87c0,0.8,0.3,1.4,3.5,1.4h2c2.6,0,3.3-0.2,3.3-1.1c0-0.9-0.4-1.2-2.4-1.2h-5.2c-5.2,0-6.7-1.2-6.7-5.2
			c0-3.7,3-4.2,6.8-4.2h3.9c7.3,0,8.6,1,8.6,4.5h-5.6c-0.3-0.9-0.8-1-4.1-1c-3.2,0-3.8,0.1-3.8,1.1c0,0.6,0.4,0.9,3.3,0.9h3.9
			c6.7,0,7.2,2.2,7.2,4.9c0,3.9-1.6,4.9-7.9,4.9h-5.3c-5.1,0-7-1.2-7-4.8H437.5z"/>
	</g>
</g>
</svg>
